<svg width="20" height="20" viewBox="0 0 20 20" fill="none" xmlns="http://www.w3.org/2000/svg">
<g clip-path="url(#clip0_12_36)">
<path d="M9.65426 4.38926C11.1826 4.38926 12.6193 5.06509 13.6743 6.12259V6.12593C13.6743 5.61843 14.0159 5.23593 14.4901 5.23593H14.6109C15.3534 5.23593 15.5051 5.93759 15.5051 6.16009L15.5093 14.0559C15.4568 14.5734 16.0426 14.8401 16.3668 14.5084C17.6343 13.2051 19.1518 7.81009 15.5784 4.68343C12.2484 1.76926 7.78093 2.24926 5.40426 3.88759C2.87843 5.63009 1.26176 9.48593 2.83259 13.1076C4.54426 17.0576 9.44176 18.2343 12.3526 17.0609C13.8268 16.4651 14.5076 18.4576 12.9768 19.1084C10.6634 20.0951 4.22509 19.9951 1.21843 14.7851C-0.814074 11.2676 -0.705741 5.07759 4.68343 1.87093C8.80593 -0.581575 14.2418 0.0975919 17.5184 3.52009C20.9443 7.09843 20.7451 13.7984 17.4026 16.4043C15.8893 17.5876 13.6393 16.4351 13.6543 14.7118L13.6384 14.1468C12.5843 15.1934 11.1818 15.8034 9.65343 15.8034C6.63259 15.8034 3.97593 13.1459 3.97593 10.1268C3.97593 7.07759 6.63343 4.38926 9.65426 4.38926ZM13.4551 9.90843C13.3409 7.69759 11.7001 6.36759 9.71843 6.36759H9.64342C7.35593 6.36759 6.08676 8.16676 6.08676 10.2093C6.08676 12.4984 7.62176 13.9434 9.63343 13.9434C11.8776 13.9434 13.3534 12.2993 13.4601 10.3551L13.4551 9.90843Z" fill="#858B9B"/>
</g>
<defs>
<clipPath id="clip0_12_36">
<rect width="20" height="20" fill="white"/>
</clipPath>
</defs>
</svg>
