<svg width="24" height="20" viewBox="0 0 24 20" fill="none" xmlns="http://www.w3.org/2000/svg">
<g clip-path="url(#clip0_12_44)">
<path d="M23.954 2.46901C23.0555 2.86462 22.1036 3.12575 21.129 3.24401C22.1551 2.62726 22.9234 1.66006 23.292 0.521013C22.341 1.07601 21.287 1.48001 20.165 1.70501C19.4248 0.913442 18.4439 0.388434 17.3746 0.211514C16.3054 0.0345945 15.2077 0.215663 14.2519 0.726604C13.2962 1.23754 12.5359 2.04976 12.0891 3.03714C11.6423 4.02451 11.534 5.13178 11.781 6.18701C7.691 5.99401 4.066 4.03001 1.64 1.06101C1.19879 1.81083 0.968664 2.66604 0.974 3.53601C0.974 5.24601 1.844 6.74901 3.162 7.63201C2.38086 7.60715 1.61697 7.39595 0.934 7.01601V7.07701C0.933557 8.2134 1.32627 9.31495 2.04551 10.1948C2.76474 11.0746 3.76621 11.6785 4.88 11.904C4.1583 12.0974 3.40241 12.1264 2.668 11.989C2.98425 12.9669 3.59783 13.8218 4.42315 14.4343C5.24847 15.0469 6.24439 15.3866 7.272 15.406C5.53149 16.7719 3.38246 17.5132 1.17 17.511C0.78 17.511 0.391 17.488 0 17.444C2.25571 18.8883 4.87851 19.655 7.557 19.653C16.611 19.653 21.556 12.157 21.556 5.66701C21.556 5.45801 21.556 5.24701 21.541 5.03701C22.507 4.34186 23.3402 3.47882 24.001 2.48901L23.954 2.46901Z" fill="#858B9B"/>
</g>
<defs>
<clipPath id="clip0_12_44">
<rect width="24.001" height="20" fill="white"/>
</clipPath>
</defs>
</svg>
