<svg width="20" height="20" viewBox="0 0 20 20" fill="none" xmlns="http://www.w3.org/2000/svg">
<g clip-path="url(#clip0_12_38)">
<path d="M15.9992 20C15.9992 11.2225 8.7775 4 0 4V0C10.9708 0 20 9.02917 20 20H15.9992ZM2.7425 14.5125C3.47011 14.514 4.16746 14.8039 4.6818 15.3185C5.19615 15.8332 5.48557 16.5307 5.48667 17.2583C5.4838 17.9862 5.19277 18.6833 4.67725 19.1971C4.16172 19.7109 3.46368 19.9996 2.73583 20C1.225 20 0 18.7717 0 17.2583C0 15.745 1.22917 14.5133 2.7425 14.5125ZM13.2575 20H9.37C9.37 14.8592 5.14083 10.6292 0 10.6292V6.74167C7.2725 6.74167 13.2575 12.7283 13.2575 20Z" fill="#858B9B"/>
</g>
<defs>
<clipPath id="clip0_12_38">
<rect width="20" height="20" fill="white"/>
</clipPath>
</defs>
</svg>
