<svg width="24" height="17" viewBox="0 0 24 17" fill="none" xmlns="http://www.w3.org/2000/svg">
<g clip-path="url(#clip0_12_42)">
<path d="M23.49 2.58901C23.351 2.09078 23.0857 1.63683 22.72 1.27106C22.3542 0.905294 21.9002 0.640065 21.402 0.501014C19.532 1.43647e-05 12.006 1.41856e-05 12.006 1.41856e-05C12.006 1.41856e-05 4.499 -0.00998563 2.61 0.501014C2.11176 0.640065 1.65782 0.905294 1.29205 1.27106C0.926282 1.63683 0.661053 2.09078 0.522002 2.58901C0.167523 4.50352 -0.00723708 6.44698 2.36934e-06 8.39401C-0.0058685 10.3337 0.168886 12.2697 0.522002 14.177C0.661053 14.6753 0.926282 15.1292 1.29205 15.495C1.65782 15.8607 2.11176 16.126 2.61 16.265C4.478 16.767 12.006 16.767 12.006 16.767C12.006 16.767 19.512 16.767 21.402 16.265C21.9002 16.126 22.3542 15.8607 22.72 15.495C23.0857 15.1292 23.351 14.6753 23.49 14.177C23.8357 12.269 24.0031 10.333 23.99 8.39401C24.0045 6.44767 23.8371 4.50422 23.49 2.58901ZM9.604 11.985V4.79201L15.868 8.39401L9.604 11.985Z" fill="#858B9B"/>
</g>
<defs>
<clipPath id="clip0_12_42">
<rect width="23.99" height="16.767" fill="white"/>
</clipPath>
</defs>
</svg>
